<?xml version="1.0" ?><svg version="1.1" viewBox="5.366614818573 -0.174570366740227 170.395164966583 170.841577813029" xmlns="http://www.w3.org/2000/svg" xmlns:xlink="http://www.w3.org/1999/xlink"><defs><linearGradient id="def0" x1="0.499999" x2="0.499999" y1="0.148064" y2="0.839574"><stop offset="0" stop-color="#FFFFFF"/><stop offset="1" stop-color="#99C2E7"/></linearGradient><linearGradient id="def1" x1="0.5" x2="0.5" y1="1.05452" y2="0.217613"><stop offset="0" stop-color="#89BCE6"/><stop offset="1" stop-color="#3994CF"/></linearGradient><linearGradient id="def2" x1="0.500001" x2="0.500001" y1="-0.0252991" y2="0.841898"><stop offset="0" stop-color="#D7DDE7"/><stop offset="1" stop-color="#99C2E7"/></linearGradient></defs><g><path d="M38.292,132.32L20.968,132.32C2.688,132.481,-3.17891E-06,162.778,20.968,169.688L124.321,169.688C125.376,169.688,126.392,169.596,127.368,169.401L127.368,169.401C99.3947,167.201,103.34,135.74,118.791,132.32L38.292,132.32z" fill="url(#def0)"/><path d="M153.692,0.975601L153.613,0.986267C147.477,1.88226,141.695,6.17694,138.928,15.0236L138.928,39.7156 155.395,39.7156C166.007,39.7156,172.473,32.8716,174.444,23.4836L174.444,23.4836C177.209,10.2783,166.669,0.806274,156.109,0.806274L156.109,0.806274C155.301,0.806274,154.493,0.862274,153.692,0.975601z" fill="url(#def1)"/><path d="M59.5,0.986267C45.5427,0.986267,37.9547,4.22226,38.292,23.1436L38.292,132.32 118.791,132.32C103.34,135.74,99.3947,167.201,127.368,169.401L127.368,169.401C130.613,168.769,133.421,167.038,135.825,163.982L135.825,163.982C137.961,161.269,139.015,157.881,138.928,153.765L138.928,39.7156 138.928,15.0236C141.695,6.17694,147.477,1.88226,153.613,0.986267L59.5,0.986267z" fill="url(#def2)"/><g><path d="M139.798,38.7347L139.798,15.188C142.468,6.828 147.97,2.77733 153.784,1.952 156.383,1.584 159.048,1.85199 161.556,2.65733 164.066,3.46667 166.415,4.81332 168.38,6.60133 172.586,10.4227 175.052,16.2933 173.596,23.26 172.618,27.9173 170.49,31.9173 167.255,34.676 164.258,37.232 160.291,38.7347 155.394,38.7347 M118.791,131.337L20.9669,131.337 20.9643,131.34C15.2456,131.392 10.9629,134.244 8.3416,138.425 6.75493,140.951 5.7816,143.956 5.4736,147.109 5.16826,150.256 5.51226,153.561 6.56026,156.7 8.57493,162.728 13.1869,168.143 20.7243,170.625L20.8536,170.667 20.9669,170.667 124.322,170.667C126.723,170.667 128.932,170.213 130.958,169.228 132.988,168.243 134.824,166.735 136.476,164.635 137.619,163.179 138.476,161.541 139.032,159.72 139.58,157.921 139.838,155.933 139.795,153.765L139.798,153.765 139.798,40.7013 155.394,40.7013C160.692,40.7013 165.01,39.0453 168.3,36.2427 171.871,33.1973 174.216,28.8067 175.288,23.7067 176.924,15.9067 174.163,9.34267 169.468,5.07333 167.316,3.12 164.758,1.64799 162.028,0.769333 159.302,-0.108002 156.403,-0.398682 153.572,0.00265503 147.108,0.919998 141.014,5.412 138.111,14.696L138.06,14.8627 138.06,15.024 138.06,153.765 138.063,153.787C138.102,155.72 137.875,157.489 137.39,159.08 136.907,160.653 136.167,162.072 135.18,163.331 133.702,165.208 132.067,166.553 130.27,167.425 128.47,168.299 126.488,168.704 124.322,168.704L21.0816,168.704C14.2096,166.396 10.0136,161.475 8.1856,156.008 7.2336,153.163 6.92026,150.169 7.20026,147.325 7.47893,144.489 8.34693,141.8 9.75493,139.556 12.0696,135.863 15.8736,133.345 20.9669,133.299L118.791,133.299 118.791,131.337z" fill="#94ADC3"/><path d="M39.1629,132.319L39.1629,23.1453 39.1603,23.124C38.9963,14.0107 40.6936,8.716 44.0683,5.73999 47.4763,2.73734 52.7003,1.97067 59.4989,1.97067L153.691,1.97067 153.691,0.0039978 59.4989,0.0039978C52.3429,0.0039978 46.7936,0.85733 43.0003,4.19867 39.1829,7.56934 37.2536,13.3507 37.4269,23.1453L37.4229,23.1453 37.4229,132.319 39.1629,132.319z" fill="#94ADC3"/><path d="M118.622,131.359C113.346,132.527 109.331,136.774 107.321,142.067 106.246,144.899 105.737,148.038 105.919,151.164 106.094,154.298 106.958,157.427 108.627,160.228 111.771,165.519 117.754,169.631 127.313,170.382L127.426,168.427C118.477,167.722 112.934,163.966 110.065,159.14 108.582,156.644 107.809,153.843 107.649,151.042 107.489,148.224 107.945,145.391 108.915,142.839 110.713,138.107 114.278,134.318 118.954,133.283L118.622,131.359z" fill="#94ADC3"/><path d="M62.2325,4.23534C48.2752,4.23534,40.6885,7.47266,41.0259,26.394L41.0259,131.337 39.1632,131.337 39.1632,23.1447 39.1592,23.1233C38.9965,14.01 40.6939,8.71667 44.0672,5.74066 47.4765,2.73666 52.7005,1.97 59.4992,1.97L147.667,1.97C146.555,2.58333,145.485,3.33667,144.483,4.23534L62.2325,4.23534z" fill="#FFFFFF"/><path d="M49.3733,29.5983L127.055,29.5983 127.055,31.5676 49.3733,31.5676 49.3733,29.5983z" fill="#FFFFFF"/><path d="M49.3733,44.5356L127.055,44.5356 127.055,46.5023 49.3733,46.5023 49.3733,44.5356z" fill="#FFFFFF"/><path d="M49.3733,58.8423L127.055,58.8423 127.055,60.8089 49.3733,60.8089 49.3733,58.8423z" fill="#FFFFFF"/><path d="M49.3733,73.7823L127.055,73.7823 127.055,75.7489 49.3733,75.7489 49.3733,73.7823z" fill="#FFFFFF"/><path d="M49.3733,87.7689L127.055,87.7689 127.055,89.7329 49.3733,89.7329 49.3733,87.7689z" fill="#FFFFFF"/><path d="M49.3733,102.706L127.055,102.706 127.055,104.677 49.3733,104.677 49.3733,102.706z" fill="#FFFFFF"/><path d="M49.3733,116.992L127.055,116.992 127.055,118.96 49.3733,118.96 49.3733,116.992z" fill="#FFFFFF"/></g></g></svg>